<?xml version="1.0" encoding="UTF-8" standalone="no"?>
<!-- Created with Inkscape (http://www.inkscape.org/) -->

<svg
   xmlns:dc="http://purl.org/dc/elements/1.1/"
   xmlns:cc="http://creativecommons.org/ns#"
   xmlns:rdf="http://www.w3.org/1999/02/22-rdf-syntax-ns#"
   xmlns:svg="http://www.w3.org/2000/svg"
   xmlns="http://www.w3.org/2000/svg"
   xmlns:sodipodi="http://sodipodi.sourceforge.net/DTD/sodipodi-0.dtd"
   xmlns:inkscape="http://www.inkscape.org/namespaces/inkscape"
   width="210mm"
   height="297mm"
   viewBox="0 0 210 297"
   version="1.1"
   id="svg1927"
   inkscape:version="0.92.3 (unknown)"
   sodipodi:docname="infinity.svg">
  <defs
     id="defs1921" />
  <sodipodi:namedview
     id="base"
     pagecolor="#ffffff"
     bordercolor="#666666"
     borderopacity="1.0"
     inkscape:pageopacity="0.0"
     inkscape:pageshadow="2"
     inkscape:zoom="1"
     inkscape:cx="-288.68142"
     inkscape:cy="643.35698"
     inkscape:document-units="px"
     inkscape:current-layer="layer1"
     showgrid="false"
     showborder="false"
     inkscape:window-width="1855"
     inkscape:window-height="1056"
     inkscape:window-x="65"
     inkscape:window-y="24"
     inkscape:window-maximized="1" />
  <metadata
     id="metadata1924">
    <rdf:RDF>
      <cc:Work
         rdf:about="">
        <dc:format>image/svg+xml</dc:format>
        <dc:type
           rdf:resource="http://purl.org/dc/dcmitype/StillImage" />
        <dc:title></dc:title>
      </cc:Work>
    </rdf:RDF>
  </metadata>
  <g
     inkscape:label="Layer 1"
     inkscape:groupmode="layer"
     id="layer1">
    <g
       id="g2535"
       transform="rotate(45,-30.117631,126.40288)">
      <path
         inkscape:connector-curvature="0"
         id="path2500"
         d="m -68.674641,129.75486 c -4.515996,4.516 -7.318386,10.7459 -7.318382,17.60461 -8e-6,13.7174 11.205211,24.92263 24.922621,24.92262 13.717405,-1e-5 24.922618,-11.20521 24.922621,-24.92263 2e-6,-4.68822 0.0095,-11.31724 0.0033,-16.98158 5.664335,0.006 12.292994,-0.003 16.9812194,-0.003 13.7174093,0 24.9226086,-11.20522 24.9226236,-24.92262 4e-6,-13.71741 -11.2052133,-24.922629 -24.9226226,-24.922624 -6.8587064,-10e-7 -13.0882444,2.802023 -17.6042384,7.318017 -4.515995,4.515995 -7.318385,10.745898 -7.318384,17.604607 -2e-6,4.6359 -0.0083,11.68735 -0.0022,16.98195 -5.294603,-0.006 -12.346372,0.003 -16.982318,0.003 -6.858707,-10e-6 -13.088244,2.80202 -17.604239,7.31801 z m 5.57685,5.57686 c 3.067837,-3.06784 7.313548,-4.95677 12.027389,-4.95676 4.702292,0 11.721429,-0.004 16.98597,0.002 0.0061,5.63742 7e-6,12.28287 10e-7,16.98414 -10e-7,9.42767 -7.558304,16.98596 -16.985973,16.98597 -9.42766,1e-5 -16.985971,-7.5583 -16.98597,-16.98597 -4e-6,-4.71384 1.890746,-8.96138 4.958583,-12.02921 z m 41.90713,-41.907137 c 3.067838,-3.067838 7.313552,-4.956759 12.0273887,-4.956754 9.42766328,-3e-6 16.9859755,7.558307 16.9859706,16.985971 -10e-6,9.42767 -7.55683636,16.98451 -16.9845091,16.9845 -4.7012752,1e-5 -11.3467212,0.006 -16.9841442,0 -0.0061,-5.26453 -0.0018,-12.28367 -0.0018,-16.98597 -4e-6,-4.71384 1.889282,-8.959909 4.95712,-12.027747 z"
         style="color:#000000;font-style:normal;font-variant:normal;font-weight:normal;font-stretch:normal;font-size:medium;line-height:normal;font-family:sans-serif;font-variant-ligatures:normal;font-variant-position:normal;font-variant-caps:normal;font-variant-numeric:normal;font-variant-alternates:normal;font-feature-settings:normal;text-indent:0;text-align:start;text-decoration:none;text-decoration-line:none;text-decoration-style:solid;text-decoration-color:#000000;letter-spacing:normal;word-spacing:normal;text-transform:none;writing-mode:lr-tb;direction:ltr;text-orientation:mixed;dominant-baseline:auto;baseline-shift:baseline;text-anchor:start;white-space:normal;shape-padding:0;clip-rule:nonzero;display:inline;overflow:visible;visibility:visible;opacity:1;isolation:auto;mix-blend-mode:normal;color-interpolation:sRGB;color-interpolation-filters:linearRGB;solid-color:#000000;solid-opacity:1;vector-effect:none;fill:#ff0000;fill-opacity:1;fill-rule:nonzero;stroke:#ff0000;stroke-width:15.875;stroke-linecap:round;stroke-linejoin:round;stroke-miterlimit:4;stroke-dasharray:none;stroke-dashoffset:0;stroke-opacity:1;color-rendering:auto;image-rendering:auto;shape-rendering:auto;text-rendering:auto;enable-background:accumulate" />
      <path
         inkscape:connector-curvature="0"
         id="path2483"
         d="m -68.674641,129.75486 c -4.515996,4.516 -7.318386,10.7459 -7.318382,17.60461 -8e-6,13.7174 11.205211,24.92263 24.922621,24.92262 13.717405,-1e-5 24.922618,-11.20521 24.922621,-24.92263 2e-6,-4.68822 0.0095,-11.31724 0.0033,-16.98158 5.664335,0.006 12.292994,-0.003 16.9812194,-0.003 13.7174093,0 24.9226086,-11.20522 24.9226236,-24.92262 4e-6,-13.71741 -11.2052133,-24.922629 -24.9226226,-24.922624 -6.8587064,-10e-7 -13.0882444,2.802023 -17.6042384,7.318017 -4.515995,4.515995 -7.318385,10.745898 -7.318384,17.604607 -2e-6,4.6359 -0.0083,11.68735 -0.0022,16.98195 -5.294603,-0.006 -12.346372,0.003 -16.982318,0.003 -6.858707,-10e-6 -13.088244,2.80202 -17.604239,7.31801 z m 5.57685,5.57686 c 3.067837,-3.06784 7.313548,-4.95677 12.027389,-4.95676 4.702292,0 11.721429,-0.004 16.98597,0.002 0.0061,5.63742 7e-6,12.28287 10e-7,16.98414 -10e-7,9.42767 -7.558304,16.98596 -16.985973,16.98597 -9.42766,1e-5 -16.985971,-7.5583 -16.98597,-16.98597 -4e-6,-4.71384 1.890746,-8.96138 4.958583,-12.02921 z m 41.90713,-41.907137 c 3.067838,-3.067838 7.313552,-4.956759 12.0273887,-4.956754 9.42766328,-3e-6 16.9859755,7.558307 16.9859706,16.985971 -10e-6,9.42767 -7.55683636,16.98451 -16.9845091,16.9845 -4.7012752,1e-5 -11.3467212,0.006 -16.9841442,0 -0.0061,-5.26453 -0.0018,-12.28367 -0.0018,-16.98597 -4e-6,-4.71384 1.889282,-8.959909 4.95712,-12.027747 z"
         style="color:#000000;font-style:normal;font-variant:normal;font-weight:normal;font-stretch:normal;font-size:medium;line-height:normal;font-family:sans-serif;font-variant-ligatures:normal;font-variant-position:normal;font-variant-caps:normal;font-variant-numeric:normal;font-variant-alternates:normal;font-feature-settings:normal;text-indent:0;text-align:start;text-decoration:none;text-decoration-line:none;text-decoration-style:solid;text-decoration-color:#000000;letter-spacing:normal;word-spacing:normal;text-transform:none;writing-mode:lr-tb;direction:ltr;text-orientation:mixed;dominant-baseline:auto;baseline-shift:baseline;text-anchor:start;white-space:normal;shape-padding:0;clip-rule:nonzero;display:inline;overflow:visible;visibility:visible;opacity:1;isolation:auto;mix-blend-mode:normal;color-interpolation:sRGB;color-interpolation-filters:linearRGB;solid-color:#000000;solid-opacity:1;vector-effect:none;fill:#f9f9f9;fill-opacity:1;fill-rule:nonzero;stroke:none;stroke-width:7.9375;stroke-linecap:round;stroke-linejoin:round;stroke-miterlimit:4;stroke-dasharray:none;stroke-dashoffset:0;stroke-opacity:1;color-rendering:auto;image-rendering:auto;shape-rendering:auto;text-rendering:auto;enable-background:accumulate" />
      <path
         sodipodi:nodetypes="ccccc"
         style="opacity:0.50735294;fill:#000000;stroke:none;stroke-width:0.26458332px;stroke-linecap:butt;stroke-linejoin:miter;stroke-opacity:1"
         d="m -18.121572,145.65056 -24.087669,-0.0468 -2e-6,-7.38349 24.087666,-0.0468 z"
         id="path2509"
         inkscape:connector-curvature="0" />
      <path
         sodipodi:nodetypes="ccccc"
         style="opacity:0.50735294;fill:#000000;stroke:none;stroke-width:0.26458332px;stroke-linecap:butt;stroke-linejoin:miter;stroke-opacity:1"
         d="m -18.121572,114.41326 -24.087669,-0.0468 -2e-6,-7.31734 24.087666,-0.0468 z"
         id="path2511"
         inkscape:connector-curvature="0" />
      <path
         inkscape:connector-curvature="0"
         id="path2525"
         d="m -34.088083,122.43421 7.942128,0.004 0.04709,-8.13039 -7.99804,0.0936 z"
         style="fill:#ff0000;stroke:none;stroke-width:0.26458332px;stroke-linecap:butt;stroke-linejoin:miter;stroke-opacity:1" />
      <path
         style="fill:#ff0000;stroke:none;stroke-width:0.26458332px;stroke-linecap:butt;stroke-linejoin:miter;stroke-opacity:1"
         d="m -34.07561,138.40975 7.942128,0.004 0.04709,-8.13039 -7.99804,0.0936 z"
         id="path2527"
         inkscape:connector-curvature="0" />
    </g>
  </g>
</svg>
