<?xml version="1.0" encoding="UTF-8" standalone="no"?>
<!-- Created with Inkscape (http://www.inkscape.org/) -->

<svg
   xmlns:dc="http://purl.org/dc/elements/1.1/"
   xmlns:cc="http://creativecommons.org/ns#"
   xmlns:rdf="http://www.w3.org/1999/02/22-rdf-syntax-ns#"
   xmlns:svg="http://www.w3.org/2000/svg"
   xmlns="http://www.w3.org/2000/svg"
   xmlns:sodipodi="http://sodipodi.sourceforge.net/DTD/sodipodi-0.dtd"
   xmlns:inkscape="http://www.inkscape.org/namespaces/inkscape"
   width="210mm"
   height="297mm"
   viewBox="0 0 210 297"
   version="1.1"
   id="svg8"
   inkscape:version="0.92.3 (unknown)"
   sodipodi:docname="pro1.svg">
  <defs
     id="defs2">
    <marker
       inkscape:isstock="true"
       style="overflow:visible"
       id="marker4730"
       refX="0.0"
       refY="0.0"
       orient="auto"
       inkscape:stockid="Arrow1Lstart">
      <path
         transform="scale(0.8) translate(12.5,0)"
         style="fill-rule:evenodd;stroke:none;stroke-width:1pt;stroke-opacity:1;fill:#ff0000;fill-opacity:0.72272728"
         d="M 0.0,0.0 L 5.0,-5.0 L -12.5,0.0 L 5.0,5.0 L 0.0,0.0 z "
         id="path4728" />
    </marker>
    <marker
       inkscape:isstock="true"
       style="overflow:visible"
       id="marker4211"
       refX="0.0"
       refY="0.0"
       orient="auto"
       inkscape:stockid="Arrow1Lstart">
      <path
         transform="scale(0.8) translate(12.5,0)"
         style="fill-rule:evenodd;stroke:none;stroke-width:1pt;stroke-opacity:1;fill:#b3b3bc;fill-opacity:0.72272728"
         d="M 0.0,0.0 L 5.0,-5.0 L -12.5,0.0 L 5.0,5.0 L 0.0,0.0 z "
         id="path4209" />
    </marker>
    <marker
       inkscape:stockid="Arrow1Lstart"
       orient="auto"
       refY="0.0"
       refX="0.0"
       id="marker1457"
       style="overflow:visible"
       inkscape:isstock="true">
      <path
         id="path1455"
         d="M 0.0,0.0 L 5.0,-5.0 L -12.5,0.0 L 5.0,5.0 L 0.0,0.0 z "
         style="fill-rule:evenodd;stroke:none;stroke-width:1pt;stroke-opacity:1;fill:#b3b3bc;fill-opacity:0.72272728"
         transform="scale(0.8) translate(12.5,0)" />
    </marker>
    <marker
       inkscape:stockid="Arrow1Lstart"
       orient="auto"
       refY="0.0"
       refX="0.0"
       id="marker1393"
       style="overflow:visible"
       inkscape:isstock="true">
      <path
         id="path1391"
         d="M 0.0,0.0 L 5.0,-5.0 L -12.5,0.0 L 5.0,5.0 L 0.0,0.0 z "
         style="fill-rule:evenodd;stroke:none;stroke-width:1pt;stroke-opacity:1;fill:#b3b3bc;fill-opacity:0.72272728"
         transform="scale(0.8) translate(12.5,0)" />
    </marker>
    <marker
       inkscape:stockid="Arrow1Lstart"
       orient="auto"
       refY="0.0"
       refX="0.0"
       id="marker1335"
       style="overflow:visible"
       inkscape:isstock="true"
       inkscape:collect="always">
      <path
         id="path1333"
         d="M 0.0,0.0 L 5.0,-5.0 L -12.5,0.0 L 5.0,5.0 L 0.0,0.0 z "
         style="fill-rule:evenodd;stroke:none;stroke-width:1pt;stroke-opacity:1;fill:#ff0000;fill-opacity:0.72272728"
         transform="scale(0.8) translate(12.5,0)" />
    </marker>
    <marker
       inkscape:stockid="Arrow1Lstart"
       orient="auto"
       refY="0.0"
       refX="0.0"
       id="marker1283"
       style="overflow:visible"
       inkscape:isstock="true">
      <path
         id="path1281"
         d="M 0.0,0.0 L 5.0,-5.0 L -12.5,0.0 L 5.0,5.0 L 0.0,0.0 z "
         style="fill-rule:evenodd;stroke:none;stroke-width:1pt;stroke-opacity:1;fill:#b3b3bc;fill-opacity:0.72272728"
         transform="scale(0.8) translate(12.5,0)" />
    </marker>
    <marker
       inkscape:stockid="Arrow1Lstart"
       orient="auto"
       refY="0.0"
       refX="0.0"
       id="marker1237"
       style="overflow:visible"
       inkscape:isstock="true">
      <path
         id="path1235"
         d="M 0.0,0.0 L 5.0,-5.0 L -12.5,0.0 L 5.0,5.0 L 0.0,0.0 z "
         style="fill-rule:evenodd;stroke:none;stroke-width:1pt;stroke-opacity:1;fill:#b3b3bc;fill-opacity:0.72272728"
         transform="scale(0.8) translate(12.5,0)" />
    </marker>
    <marker
       inkscape:stockid="Arrow1Lstart"
       orient="auto"
       refY="0.0"
       refX="0.0"
       id="marker1197"
       style="overflow:visible"
       inkscape:isstock="true">
      <path
         id="path1195"
         d="M 0.0,0.0 L 5.0,-5.0 L -12.5,0.0 L 5.0,5.0 L 0.0,0.0 z "
         style="fill-rule:evenodd;stroke:none;stroke-width:1pt;stroke-opacity:1;fill:#b3b3bc;fill-opacity:0.72272728"
         transform="scale(0.8) translate(12.5,0)" />
    </marker>
    <marker
       inkscape:stockid="Arrow1Lstart"
       orient="auto"
       refY="0.0"
       refX="0.0"
       id="marker1163"
       style="overflow:visible"
       inkscape:isstock="true">
      <path
         id="path1161"
         d="M 0.0,0.0 L 5.0,-5.0 L -12.5,0.0 L 5.0,5.0 L 0.0,0.0 z "
         style="fill-rule:evenodd;stroke:none;stroke-width:1pt;stroke-opacity:1;fill:#b3b3bc;fill-opacity:0.72272728"
         transform="scale(0.8) translate(12.5,0)" />
    </marker>
    <marker
       inkscape:stockid="Arrow1Lstart"
       orient="auto"
       refY="0.0"
       refX="0.0"
       id="marker1135"
       style="overflow:visible"
       inkscape:isstock="true">
      <path
         id="path1133"
         d="M 0.0,0.0 L 5.0,-5.0 L -12.5,0.0 L 5.0,5.0 L 0.0,0.0 z "
         style="fill-rule:evenodd;stroke:none;stroke-width:1pt;stroke-opacity:1;fill:#b3b3bc;fill-opacity:0.72272728"
         transform="scale(0.8) translate(12.5,0)" />
    </marker>
    <marker
       inkscape:stockid="Arrow1Lstart"
       orient="auto"
       refY="0.0"
       refX="0.0"
       id="marker1113"
       style="overflow:visible"
       inkscape:isstock="true">
      <path
         id="path1111"
         d="M 0.0,0.0 L 5.0,-5.0 L -12.5,0.0 L 5.0,5.0 L 0.0,0.0 z "
         style="fill-rule:evenodd;stroke:none;stroke-width:1pt;stroke-opacity:1;fill:#b3b3bc;fill-opacity:0.72272728"
         transform="scale(0.8) translate(12.5,0)" />
    </marker>
    <marker
       inkscape:stockid="Arrow1Lstart"
       orient="auto"
       refY="0.0"
       refX="0.0"
       id="Arrow1Lstart"
       style="overflow:visible"
       inkscape:isstock="true">
      <path
         id="path835"
         d="M 0.0,0.0 L 5.0,-5.0 L -12.5,0.0 L 5.0,5.0 L 0.0,0.0 z "
         style="fill-rule:evenodd;stroke:none;stroke-width:1pt;stroke-opacity:1;fill:#b3b3bc;fill-opacity:0.72272728"
         transform="scale(0.8) translate(12.5,0)" />
    </marker>
    <clipPath
       clipPathUnits="userSpaceOnUse"
       id="clipPath4822">
      <path
         d="m 21.205722,91.429655 h -9.8612 L -6.8933984,138.19083 c -7.1043066,18.13188 -8.8008576,20.57068 -15.9051626,21.94912 l -1.166379,0.21207 v 3.28707 H 4.4522813 v -3.28707 c -3.81723701,-0.53017 -5.619822,-0.95431 -6.7862,-1.69655 -1.590516,-1.06034 -2.6508607,-2.96896 -2.6508607,-4.87758 0,-1.59052 0.7422407,-4.55948 2.0146537,-7.84655 l 3.39310195,-9.11896 H 27.779853 l 5.301729,13.67844 c 0.636201,1.80259 1.166371,3.71121 1.166371,4.55948 0,1.48448 -0.848271,2.86293 -2.226721,3.71121 -0.954309,0.74224 -2.438791,1.06034 -6.14999,1.59051 v 3.28707 h 29.795671 v -3.28707 c -6.89224,-1.06034 -8.16465,-2.22672 -11.981892,-12.08792 z M 2.0134913,132.2529 13.783312,100.44259 25.871242,132.2529 Z"
         style="font-style:normal;font-variant:normal;font-weight:normal;font-stretch:normal;font-size:106.0344162px;line-height:1.25;font-family:'URW Bookman L';-inkscape-font-specification:'URW Bookman L, Normal';font-variant-ligatures:normal;font-variant-caps:normal;font-variant-numeric:normal;font-feature-settings:normal;text-align:start;letter-spacing:0px;word-spacing:0px;writing-mode:lr-tb;text-anchor:start;opacity:0.4;fill:#ff0000;fill-opacity:0.72272728;stroke:none;stroke-width:0;stroke-miterlimit:4;stroke-dasharray:none;stroke-opacity:1;marker-mid:url(#marker4730)"
         id="path4824"
         inkscape:connector-curvature="0" />
    </clipPath>
    <filter
       inkscape:collect="always"
       style="color-interpolation-filters:sRGB"
       id="filter6540"
       x="-0.1258482"
       width="1.2516964"
       y="-0.13878415"
       height="1.2775683">
      <feGaussianBlur
         inkscape:collect="always"
         stdDeviation="4.1756354"
         id="feGaussianBlur6542" />
    </filter>
  </defs>
  <sodipodi:namedview
     id="base"
     pagecolor="#ffffff"
     bordercolor="#666666"
     borderopacity="1.0"
     inkscape:pageopacity="0.0"
     inkscape:pageshadow="2"
     inkscape:zoom="1.4142136"
     inkscape:cx="22.951936"
     inkscape:cy="586.11474"
     inkscape:document-units="px"
     inkscape:current-layer="layer1"
     showgrid="false"
     showborder="false"
     inkscape:window-width="1855"
     inkscape:window-height="1056"
     inkscape:window-x="65"
     inkscape:window-y="24"
     inkscape:window-maximized="1" />
  <metadata
     id="metadata5">
    <rdf:RDF>
      <cc:Work
         rdf:about="">
        <dc:format>image/svg+xml</dc:format>
        <dc:type
           rdf:resource="http://purl.org/dc/dcmitype/StillImage" />
        <dc:title></dc:title>
      </cc:Work>
    </rdf:RDF>
  </metadata>
  <g
     inkscape:label="Layer 1"
     inkscape:groupmode="layer"
     id="layer1">
    <path
       style="opacity:0.5;fill:#000000;fill-opacity:0.72272728;stroke:none;stroke-width:0;stroke-miterlimit:4;stroke-dasharray:none;stroke-opacity:1"
       d="M -61.581775,79.710989 V 176.81307 H 95.532664 V 79.710989 Z m 74.050776,12.44627 h 9.861414 l 22.479249,56.834771 c 3.817239,9.8612 5.089456,11.02729 11.981696,12.08763 v 3.28714 H 26.995763 v -3.28714 c 3.711199,-0.53017 5.195702,-0.84836 6.150012,-1.5906 1.37845,-0.84828 2.226739,-2.22641 2.226739,-3.71089 0,-0.84827 -0.530138,-2.75682 -1.166339,-4.55941 L 28.904173,137.54001 H 1.5477047 l -3.3935912,9.11882 c -1.2724129,3.28707 -2.0143475,6.25603 -2.0143475,7.84655 0,1.90862 1.060485,3.8174 2.6510011,4.87774 1.16637787,0.74224 2.968912,1.16637 6.786149,1.69654 v 3.28714 H -22.840471 v -3.28714 l 1.166337,-0.21187 c 7.104305,-1.37845 8.800666,-3.81717 15.9049726,-21.94905 z M 14.907612,101.17014 3.1377885,132.9806 H 26.995763 Z"
       id="rect823"
       inkscape:connector-curvature="0"
       clip-path="url(#clipPath4822)" />
    <path
       inkscape:connector-curvature="0"
       id="path819"
       style="font-style:normal;font-variant:normal;font-weight:normal;font-stretch:normal;font-size:106.0344162px;line-height:1.25;font-family:'URW Bookman L';-inkscape-font-specification:'URW Bookman L, Normal';font-variant-ligatures:normal;font-variant-caps:normal;font-variant-numeric:normal;font-feature-settings:normal;text-align:start;letter-spacing:0px;word-spacing:0px;writing-mode:lr-tb;text-anchor:start;fill:#ff0000;fill-opacity:0.72272728;stroke:none;stroke-width:0;stroke-miterlimit:4;stroke-dasharray:none;stroke-opacity:1;marker-mid:url(#marker1335);opacity:0.58;filter:url(#filter6540)"
       d="m 21.205722,91.429655 h -9.8612 L -6.8933984,138.19083 c -7.1043066,18.13188 -8.8008576,20.57068 -15.9051626,21.94912 l -1.166379,0.21207 v 3.28707 H 4.4522813 v -3.28707 c -3.81723702,-0.53017 -5.619822,-0.95431 -6.7862,-1.69655 -1.590516,-1.06034 -2.6508607,-2.96896 -2.6508607,-4.87758 0,-1.59052 0.7422407,-4.55948 2.0146537,-7.84655 l 3.39310195,-9.11896 H 27.779852 l 5.30173,13.67844 c 0.6362,1.80259 1.16637,3.71121 1.16637,4.55948 0,1.48448 -0.84827,2.86293 -2.22672,3.71121 -0.95431,0.74224 -2.43879,1.06034 -6.14999,1.59051 v 3.28707 h 29.79567 v -3.28707 c -6.89224,-1.06034 -8.16465,-2.22672 -11.98189,-12.08792 z M 2.0134913,132.2529 13.783312,100.44259 25.871242,132.2529 Z"
       clip-path="none" />
  </g>
</svg>
